<svg version="1.1" xmlns="http://www.w3.org/2000/svg" xmlns:xlink="http://www.w3.org/1999/xlink" x="0px" y="0px" viewBox="0 0 37 42" enable-background="new 0 0 37 42" xml:space="preserve"><path fill="#FFF0BD" d="M18.4,41.6c-2-0.8-3.9-1.8-5.6-3.1c-1.8-1.3-3.6-2.8-5.1-4.5C4.5,30.6,2,26.6,0.4,22.3c2-6.9,2.1-12.4,0.2-18.5c2.7-1.1,5.5-1.9,8.3-2.5C15.2,0,21.6,0,27.8,1.3c2.9,0.6,5.6,1.4,8.3,2.5c-1.8,6-1.8,11.6,0.2,18.5c-1.7,4.4-4.1,8.3-7.3,11.8c-1.5,1.7-3.2,3.2-5.1,4.5C22.2,39.8,20.3,40.8,18.4,41.6z"/><path fill="#ED1C24" d="M24,38.9c5.8-4.2,10.2-10,12.7-16.7c-1.7-5.7-2-10.4-1-15.4l-0.2-0.6l-3.8-1.3l-0.4,0.3c-0.9,5.1-0.6,10.4,0.8,15.3c-3.7,8.4-10,13.6-14.5,15.5v0.7l5.3,2.3L24,38.9z"/><path fill="#0072BC" d="M18.4,0C12.7,0,7.1,1,1.8,2.9L1.6,3.3c1,2.7,1.6,5.5,1.8,8.3c0.2,3.3-0.2,6.6-1,9.7v0.1v0.1c0.5,1,1,2,1.6,3c0.6,0.9,1.2,1.9,1.9,2.7c0.7,0.9,1.5,1.7,2.3,2.5c0.8,0.8,1.6,1.6,2.5,2.3c0.9,0.7,1.9,1.4,2.9,2.1c1,0.7,2.1,1.3,3.2,1.9l0.6,0.3h0.3v-0.2c0.2-0.1,0.5-0.2,0.7-0.3C14,33.6,8.1,28.6,4.7,20.6c1.4-5,1.7-10.2,0.8-15.3C9.7,4,14,3.4,18.4,3.4c6,0,11.9,1.2,17.3,3.5c0.2-1.1,0.5-2.2,0.8-3.3C30.8,1.2,24.6,0,18.4,0z"/><path fill="#FFC20E" d="M24,38.9C13.8,35.2,6.5,29.4,2.7,21.3C4.6,13.8,3.8,9,1.8,2.9C1.3,3.1,0.7,3.3,0.2,3.6C2.1,9.7,2,15.3,0,22.2C3.3,31.1,10.4,38.8,18.4,42C20.4,41.2,22.2,40.2,24,38.9"/><path d="M15.2,16.3L15.2,16.3c1.5-0.3,2.6-0.9,2.6-2.7c0-2.2-1.7-3.2-3.9-3.2H8.1v1.2c0.8,0,1.1,0.2,1.1,1.2v8.6c0,0.2,0.1,0.3,0.2,0.5c0.1,0.1,0.3,0.2,0.5,0.2h4.5c2.9,0,3.9-1.1,3.9-3C18.2,17.5,17.3,16.5,15.2,16.3L15.2,16.3z M12.2,11.8h0.7c1.2,0,1.7,0.5,1.7,1.9c0,1.6-0.4,1.9-1.6,1.9h-0.7V11.8z M13.2,20.9h-1v-4h1.1c1.2,0,1.7,0.6,1.7,2C15,20.5,14.4,20.9,13.2,20.9z M28.7,11.1l0.2,2.7h-1.5c-0.4-1.4-0.5-2-1.6-2h-0.5v10.3h-3.1V11.8h-0.5c-1.1,0-1.2,0.5-1.6,2h-1.5l0.2-2.7c0-0.2,0.1-0.3,0.2-0.4c0.1-0.1,0.3-0.2,0.5-0.2H28c0.2,0,0.3,0.1,0.5,0.2C28.6,10.8,28.7,10.9,28.7,11.1"/></svg>